<?xml version="1.0" encoding="utf-8"?>
<!-- Generator: Adobe Illustrator 24.2.1, SVG Export Plug-In . SVG Version: 6.00 Build 0)  -->
<svg version="1.1" id="Шар_1" xmlns="http://www.w3.org/2000/svg" xmlns:xlink="http://www.w3.org/1999/xlink" x="0px" y="0px"
	 viewBox="0 0 11 11" style="enable-background:new 0 0 11 11;" xml:space="preserve">
<style type="text/css">
	.st0{display:none;}
	.st1{fill:#8173FF;}
	.st2{fill:#FFFFFF;}
</style>
<g id="Шар_3" class="st0">
</g>
<g>
	<path class="st1" d="M9.64,11H1.36C0.61,11,0,10.39,0,9.64V1.36C0,0.61,0.61,0,1.36,0h8.28C10.39,0,11,0.61,11,1.36v8.28
		C11,10.39,10.39,11,9.64,11z"/>
	<g>
		<path class="st2" d="M3.83,8.18V3.25h1.89c0.91,0,1.46,0.47,1.46,1.23c0,0.51-0.38,0.98-0.85,1.06V5.6C7,5.68,7.42,6.14,7.42,6.8
			c0,0.87-0.62,1.38-1.67,1.38H3.83z M4.44,5.37h0.98c0.75,0,1.12-0.27,1.12-0.79c0-0.5-0.36-0.79-0.97-0.79H4.44V5.37z M5.66,7.64
			c0.74,0,1.13-0.3,1.13-0.87S6.39,5.9,5.6,5.9H4.44v1.73H5.66z"/>
	</g>
</g>
</svg>
