<?xml version="1.0" encoding="utf-8"?>
<!-- Generator: Adobe Illustrator 24.2.1, SVG Export Plug-In . SVG Version: 6.00 Build 0)  -->
<svg version="1.1" id="Шар_1" xmlns="http://www.w3.org/2000/svg" xmlns:xlink="http://www.w3.org/1999/xlink" x="0px" y="0px"
	 viewBox="0 0 11 11" style="enable-background:new 0 0 11 11;" xml:space="preserve">
<style type="text/css">
	.st0{display:none;}
	.st1{fill:#A5E2CC;}
	.st2{fill:#FFFFFF;}
</style>
<g id="Шар_3" class="st0">
</g>
<g>
	<path class="st1" d="M9.6,11H1.4C0.6,11,0,10.4,0,9.6V1.4C0,0.6,0.6,0,1.4,0h8.3C10.4,0,11,0.6,11,1.4v8.3C11,10.4,10.4,11,9.6,11z
		"/>
	<g>
		<path class="st2" d="M5.2,8.2V3.8H3.6V3.2h3.8v0.5H5.8v4.4H5.2z"/>
	</g>
</g>
<path class="st2" d="M9.6,0.5c0.5,0,0.9,0.4,0.9,0.9v8.3c0,0.5-0.4,0.9-0.9,0.9H1.4c-0.5,0-0.9-0.4-0.9-0.9V1.4
	c0-0.5,0.4-0.9,0.9-0.9H9.6 M9.6,0H1.4C0.6,0,0,0.6,0,1.4v8.3C0,10.4,0.6,11,1.4,11h8.3c0.8,0,1.4-0.6,1.4-1.4V1.4
	C11,0.6,10.4,0,9.6,0L9.6,0z"/>
</svg>
